%TF.GenerationSoftware,KiCad,Pcbnew,7.0.2*%
%TF.CreationDate,2024-02-04T01:23:05+01:00*%
%TF.ProjectId,TicTacToe,54696354-6163-4546-9f65-2e6b69636164,rev?*%
%TF.SameCoordinates,Original*%
%TF.FileFunction,Copper,L2,Bot*%
%TF.FilePolarity,Positive*%
%FSLAX46Y46*%
G04 Gerber Fmt 4.6, Leading zero omitted, Abs format (unit mm)*
G04 Created by KiCad (PCBNEW 7.0.2) date 2024-02-04 01:23:05*
%MOMM*%
%LPD*%
G01*
G04 APERTURE LIST*
%TA.AperFunction,NonConductor*%
%ADD10C,0.200000*%
%TD*%
%TA.AperFunction,ComponentPad*%
%ADD11C,1.524000*%
%TD*%
%TA.AperFunction,ComponentPad*%
%ADD12C,1.400000*%
%TD*%
%TA.AperFunction,ComponentPad*%
%ADD13O,1.400000X1.400000*%
%TD*%
%TA.AperFunction,ComponentPad*%
%ADD14C,0.700000*%
%TD*%
%TA.AperFunction,ComponentPad*%
%ADD15O,1.700000X0.900000*%
%TD*%
%TA.AperFunction,ComponentPad*%
%ADD16O,2.400000X0.900000*%
%TD*%
%TA.AperFunction,ComponentPad*%
%ADD17O,1.070000X1.800000*%
%TD*%
%TA.AperFunction,ComponentPad*%
%ADD18R,1.070000X1.800000*%
%TD*%
%TA.AperFunction,Conductor*%
%ADD19C,0.250000*%
%TD*%
G04 APERTURE END LIST*
D10*
X52000000Y-55000000D02*
X171000000Y-55000000D01*
X171000000Y-108000000D01*
X52000000Y-108000000D01*
X52000000Y-55000000D01*
D11*
%TO.P,SW9,1,A*%
%TO.N,Net-(D9-R)*%
X110000000Y-94500000D03*
%TO.P,SW9,2,B*%
%TO.N,USB*%
X110000000Y-98000000D03*
%TO.P,SW9,3,C*%
%TO.N,Net-(D9-B)*%
X110000000Y-102000000D03*
%TD*%
%TO.P,SW8,1,A*%
%TO.N,Net-(D8-R)*%
X98000000Y-94500000D03*
%TO.P,SW8,2,B*%
%TO.N,USB*%
X98000000Y-98000000D03*
%TO.P,SW8,3,C*%
%TO.N,Net-(D8-B)*%
X98000000Y-102000000D03*
%TD*%
%TO.P,SW7,1,A*%
%TO.N,Net-(D7-R)*%
X86000000Y-94500000D03*
%TO.P,SW7,2,B*%
%TO.N,USB*%
X86000000Y-98000000D03*
%TO.P,SW7,3,C*%
%TO.N,Net-(D7-B)*%
X86000000Y-102000000D03*
%TD*%
%TO.P,SW6,1,A*%
%TO.N,Net-(D6-R)*%
X110000000Y-78500000D03*
%TO.P,SW6,2,B*%
%TO.N,USB*%
X110000000Y-82000000D03*
%TO.P,SW6,3,C*%
%TO.N,Net-(D6-B)*%
X110000000Y-86000000D03*
%TD*%
%TO.P,SW5,1,A*%
%TO.N,Net-(D5-R)*%
X98000000Y-78500000D03*
%TO.P,SW5,2,B*%
%TO.N,USB*%
X98000000Y-82000000D03*
%TO.P,SW5,3,C*%
%TO.N,Net-(D5-B)*%
X98000000Y-86000000D03*
%TD*%
%TO.P,SW4,1,A*%
%TO.N,Net-(D4-R)*%
X86000000Y-78500000D03*
%TO.P,SW4,2,B*%
%TO.N,USB*%
X86000000Y-82000000D03*
%TO.P,SW4,3,C*%
%TO.N,Net-(D4-B)*%
X86000000Y-86000000D03*
%TD*%
%TO.P,SW3,1,A*%
%TO.N,Net-(D3-R)*%
X110000000Y-62500000D03*
%TO.P,SW3,2,B*%
%TO.N,USB*%
X110000000Y-66000000D03*
%TO.P,SW3,3,C*%
%TO.N,Net-(D3-B)*%
X110000000Y-70000000D03*
%TD*%
%TO.P,SW2,1,A*%
%TO.N,Net-(D2-R)*%
X98000000Y-62500000D03*
%TO.P,SW2,2,B*%
%TO.N,USB*%
X98000000Y-66000000D03*
%TO.P,SW2,3,C*%
%TO.N,Net-(D2-B)*%
X98000000Y-70000000D03*
%TD*%
%TO.P,SW1,1,A*%
%TO.N,Net-(D1-R)*%
X86000000Y-62500000D03*
%TO.P,SW1,2,B*%
%TO.N,USB*%
X86000000Y-66000000D03*
%TO.P,SW1,3,C*%
%TO.N,Net-(D1-B)*%
X86000000Y-70000000D03*
%TD*%
D12*
%TO.P,R1,1*%
%TO.N,Net-(D1-Pad4)*%
X71000000Y-79460000D03*
D13*
%TO.P,R1,2*%
%TO.N,GNDREF*%
X71000000Y-84540000D03*
%TD*%
D14*
%TO.P,J1,A1*%
%TO.N,N/C*%
X60025000Y-79025000D03*
%TO.P,J1,A4*%
X60025000Y-79875000D03*
%TO.P,J1,A5,CC1*%
%TO.N,unconnected-(J1-CC1-PadA5)*%
X60025000Y-80725000D03*
%TO.P,J1,A6*%
%TO.N,N/C*%
X60025000Y-81575000D03*
%TO.P,J1,A7*%
X60025000Y-82425000D03*
%TO.P,J1,A8*%
X60025000Y-83275000D03*
%TO.P,J1,A9,VBUS*%
%TO.N,USB*%
X60025000Y-84125000D03*
%TO.P,J1,A12,GND*%
%TO.N,GNDREF*%
X60025000Y-84975000D03*
%TO.P,J1,B1*%
%TO.N,N/C*%
X58675000Y-84975000D03*
%TO.P,J1,B4*%
X58675000Y-84125000D03*
%TO.P,J1,B5,CC2*%
%TO.N,unconnected-(J1-CC2-PadB5)*%
X58675000Y-83275000D03*
%TO.P,J1,B6*%
%TO.N,N/C*%
X58675000Y-82425000D03*
%TO.P,J1,B7*%
X58675000Y-81575000D03*
%TO.P,J1,B8*%
X58675000Y-80725000D03*
%TO.P,J1,B9,VBUS*%
%TO.N,USB*%
X58675000Y-79875000D03*
%TO.P,J1,B12,GND*%
%TO.N,GNDREF*%
X58675000Y-79025000D03*
D15*
%TO.P,J1,S1,SHIELD*%
%TO.N,unconnected-(J1-SHIELD-PadS1)*%
X55665000Y-86325000D03*
X55665000Y-77675000D03*
D16*
X59045000Y-86325000D03*
X59045000Y-77675000D03*
%TD*%
D17*
%TO.P,D9,1,R*%
%TO.N,Net-(D9-R)*%
X161730000Y-98000000D03*
%TO.P,D9,2,G*%
%TO.N,unconnected-(D9-G-Pad2)*%
X164270000Y-98000000D03*
%TO.P,D9,3,B*%
%TO.N,Net-(D9-B)*%
X165540000Y-98000000D03*
D18*
%TO.P,D9,4*%
%TO.N,Net-(D1-Pad4)*%
X163000000Y-98000000D03*
%TD*%
D17*
%TO.P,D8,1,R*%
%TO.N,Net-(D8-R)*%
X149460000Y-98000000D03*
%TO.P,D8,2,G*%
%TO.N,unconnected-(D8-G-Pad2)*%
X152000000Y-98000000D03*
%TO.P,D8,3,B*%
%TO.N,Net-(D8-B)*%
X153270000Y-98000000D03*
D18*
%TO.P,D8,4*%
%TO.N,Net-(D1-Pad4)*%
X150730000Y-98000000D03*
%TD*%
D17*
%TO.P,D7,1,R*%
%TO.N,Net-(D7-R)*%
X138190000Y-98000000D03*
%TO.P,D7,2,G*%
%TO.N,unconnected-(D7-G-Pad2)*%
X140730000Y-98000000D03*
%TO.P,D7,3,B*%
%TO.N,Net-(D7-B)*%
X142000000Y-98000000D03*
D18*
%TO.P,D7,4*%
%TO.N,Net-(D1-Pad4)*%
X139460000Y-98000000D03*
%TD*%
D17*
%TO.P,D6,1,R*%
%TO.N,Net-(D6-R)*%
X161730000Y-82000000D03*
%TO.P,D6,2,G*%
%TO.N,unconnected-(D6-G-Pad2)*%
X164270000Y-82000000D03*
%TO.P,D6,3,B*%
%TO.N,Net-(D6-B)*%
X165540000Y-82000000D03*
D18*
%TO.P,D6,4*%
%TO.N,Net-(D1-Pad4)*%
X163000000Y-82000000D03*
%TD*%
D17*
%TO.P,D5,1,R*%
%TO.N,Net-(D5-R)*%
X149460000Y-82000000D03*
%TO.P,D5,2,G*%
%TO.N,unconnected-(D5-G-Pad2)*%
X152000000Y-82000000D03*
%TO.P,D5,3,B*%
%TO.N,Net-(D5-B)*%
X153270000Y-82000000D03*
D18*
%TO.P,D5,4*%
%TO.N,Net-(D1-Pad4)*%
X150730000Y-82000000D03*
%TD*%
%TO.P,D4,4*%
%TO.N,Net-(D1-Pad4)*%
X139460000Y-82000000D03*
D17*
%TO.P,D4,3,B*%
%TO.N,Net-(D4-B)*%
X142000000Y-82000000D03*
%TO.P,D4,2,G*%
%TO.N,unconnected-(D4-G-Pad2)*%
X140730000Y-82000000D03*
%TO.P,D4,1,R*%
%TO.N,Net-(D4-R)*%
X138190000Y-82000000D03*
%TD*%
D18*
%TO.P,D3,4*%
%TO.N,Net-(D1-Pad4)*%
X163000000Y-66000000D03*
D17*
%TO.P,D3,3,B*%
%TO.N,Net-(D3-B)*%
X165540000Y-66000000D03*
%TO.P,D3,2,G*%
%TO.N,unconnected-(D3-G-Pad2)*%
X164270000Y-66000000D03*
%TO.P,D3,1,R*%
%TO.N,Net-(D3-R)*%
X161730000Y-66000000D03*
%TD*%
%TO.P,D2,1,R*%
%TO.N,Net-(D2-R)*%
X149460000Y-66000000D03*
%TO.P,D2,2,G*%
%TO.N,unconnected-(D2-G-Pad2)*%
X152000000Y-66000000D03*
%TO.P,D2,3,B*%
%TO.N,Net-(D2-B)*%
X153270000Y-66000000D03*
D18*
%TO.P,D2,4*%
%TO.N,Net-(D1-Pad4)*%
X150730000Y-66000000D03*
%TD*%
%TO.P,D1,4*%
%TO.N,Net-(D1-Pad4)*%
X139460000Y-66000000D03*
D17*
%TO.P,D1,3,B*%
%TO.N,Net-(D1-B)*%
X142000000Y-66000000D03*
%TO.P,D1,2,G*%
%TO.N,unconnected-(D1-G-Pad2)*%
X140730000Y-66000000D03*
%TO.P,D1,1,R*%
%TO.N,Net-(D1-R)*%
X138190000Y-66000000D03*
%TD*%
D19*
%TO.N,Net-(D1-Pad4)*%
X71000000Y-70000000D02*
X71000000Y-79460000D01*
X83000000Y-58000000D02*
X71000000Y-70000000D01*
X155365000Y-58000000D02*
X83000000Y-58000000D01*
X163000000Y-66000000D02*
X163000000Y-65635000D01*
X163000000Y-65635000D02*
X155365000Y-58000000D01*
X163000000Y-66000000D02*
X163000000Y-82000000D01*
X163000000Y-98000000D02*
X163000000Y-82000000D01*
X163000000Y-83682500D02*
X163000000Y-82000000D01*
X162682500Y-84000000D02*
X163000000Y-83682500D01*
X150730000Y-83730000D02*
X151000000Y-84000000D01*
X151000000Y-84000000D02*
X162682500Y-84000000D01*
X150730000Y-82000000D02*
X150730000Y-83730000D01*
X162000000Y-68000000D02*
X163000000Y-67000000D01*
X163000000Y-67000000D02*
X163000000Y-66000000D01*
X151682500Y-68000000D02*
X162000000Y-68000000D01*
X150730000Y-67047500D02*
X151682500Y-68000000D01*
X150730000Y-66000000D02*
X150730000Y-67047500D01*
X150070000Y-68000000D02*
X150730000Y-67340000D01*
X140047500Y-68000000D02*
X150070000Y-68000000D01*
X150730000Y-67340000D02*
X150730000Y-66000000D01*
X139460000Y-67412500D02*
X140047500Y-68000000D01*
X139460000Y-66000000D02*
X139460000Y-67412500D01*
X149861224Y-84000000D02*
X150730000Y-83131224D01*
X139460000Y-83460000D02*
X140000000Y-84000000D01*
X139460000Y-82000000D02*
X139460000Y-83460000D01*
X140000000Y-84000000D02*
X149861224Y-84000000D01*
X150730000Y-83131224D02*
X150730000Y-82000000D01*
X150730000Y-99290612D02*
X150730000Y-98000000D01*
X150020612Y-100000000D02*
X150730000Y-99290612D01*
X139460000Y-99412500D02*
X140047500Y-100000000D01*
X140047500Y-100000000D02*
X150020612Y-100000000D01*
X139460000Y-98000000D02*
X139460000Y-99412500D01*
X163000000Y-99000000D02*
X163000000Y-98000000D01*
X162000000Y-100000000D02*
X163000000Y-99000000D01*
X150730000Y-99047500D02*
X151682500Y-100000000D01*
X151682500Y-100000000D02*
X162000000Y-100000000D01*
X150730000Y-98000000D02*
X150730000Y-99047500D01*
%TO.N,USB*%
X76000000Y-88000000D02*
X76000000Y-82000000D01*
X86000000Y-98000000D02*
X76000000Y-88000000D01*
X76000000Y-76000000D02*
X76000000Y-82000000D01*
X86000000Y-66000000D02*
X76000000Y-76000000D01*
X76000000Y-82000000D02*
X62254595Y-82000000D01*
X86000000Y-82000000D02*
X76000000Y-82000000D01*
X60129595Y-84125000D02*
X60025000Y-84125000D01*
X62254595Y-82000000D02*
X60129595Y-84125000D01*
X110000000Y-98000000D02*
X98000000Y-98000000D01*
X86000000Y-98000000D02*
X98000000Y-98000000D01*
X110000000Y-82000000D02*
X98000000Y-82000000D01*
X86000000Y-82000000D02*
X98000000Y-82000000D01*
X110000000Y-66000000D02*
X98000000Y-66000000D01*
X86000000Y-66000000D02*
X98000000Y-66000000D01*
%TO.N,Net-(D7-R)*%
X133603000Y-93413000D02*
X138190000Y-98000000D01*
X87087000Y-93413000D02*
X133603000Y-93413000D01*
X86000000Y-94500000D02*
X87087000Y-93413000D01*
%TO.N,Net-(D4-R)*%
X137103000Y-80913000D02*
X138190000Y-82000000D01*
X88413000Y-80913000D02*
X137103000Y-80913000D01*
X86000000Y-78500000D02*
X88413000Y-80913000D01*
%TO.N,Net-(D5-R)*%
X145000000Y-76000000D02*
X149460000Y-80460000D01*
X99000000Y-76000000D02*
X145000000Y-76000000D01*
X98000000Y-77000000D02*
X99000000Y-76000000D01*
X149460000Y-80460000D02*
X149460000Y-82000000D01*
X98000000Y-78500000D02*
X98000000Y-77000000D01*
%TO.N,Net-(D2-R)*%
X144873000Y-61413000D02*
X149460000Y-66000000D01*
X99087000Y-61413000D02*
X144873000Y-61413000D01*
X98000000Y-62500000D02*
X99087000Y-61413000D01*
%TO.N,Net-(D1-R)*%
X87500000Y-64000000D02*
X136190000Y-64000000D01*
X136190000Y-64000000D02*
X138190000Y-66000000D01*
X86000000Y-62500000D02*
X87500000Y-64000000D01*
%TO.N,Net-(D1-Pad4)*%
X139460000Y-82000000D02*
X139460000Y-81547500D01*
X150730000Y-81635000D02*
X150730000Y-82000000D01*
X139460000Y-81540000D02*
X139460000Y-82000000D01*
%TD*%
M02*
