%TF.GenerationSoftware,KiCad,Pcbnew,7.0.2*%
%TF.CreationDate,2024-02-04T01:23:05+01:00*%
%TF.ProjectId,TicTacToe,54696354-6163-4546-9f65-2e6b69636164,rev?*%
%TF.SameCoordinates,Original*%
%TF.FileFunction,Soldermask,Bot*%
%TF.FilePolarity,Negative*%
%FSLAX46Y46*%
G04 Gerber Fmt 4.6, Leading zero omitted, Abs format (unit mm)*
G04 Created by KiCad (PCBNEW 7.0.2) date 2024-02-04 01:23:05*
%MOMM*%
%LPD*%
G01*
G04 APERTURE LIST*
%ADD10C,1.524000*%
%ADD11C,1.400000*%
%ADD12O,1.400000X1.400000*%
%ADD13C,0.700000*%
%ADD14O,1.700000X0.900000*%
%ADD15O,2.400000X0.900000*%
%ADD16O,1.070000X1.800000*%
%ADD17R,1.070000X1.800000*%
G04 APERTURE END LIST*
D10*
%TO.C,SW9*%
X110000000Y-94500000D03*
X110000000Y-98000000D03*
X110000000Y-102000000D03*
%TD*%
%TO.C,SW8*%
X98000000Y-94500000D03*
X98000000Y-98000000D03*
X98000000Y-102000000D03*
%TD*%
%TO.C,SW7*%
X86000000Y-94500000D03*
X86000000Y-98000000D03*
X86000000Y-102000000D03*
%TD*%
%TO.C,SW6*%
X110000000Y-78500000D03*
X110000000Y-82000000D03*
X110000000Y-86000000D03*
%TD*%
%TO.C,SW5*%
X98000000Y-78500000D03*
X98000000Y-82000000D03*
X98000000Y-86000000D03*
%TD*%
%TO.C,SW4*%
X86000000Y-78500000D03*
X86000000Y-82000000D03*
X86000000Y-86000000D03*
%TD*%
%TO.C,SW3*%
X110000000Y-62500000D03*
X110000000Y-66000000D03*
X110000000Y-70000000D03*
%TD*%
%TO.C,SW2*%
X98000000Y-62500000D03*
X98000000Y-66000000D03*
X98000000Y-70000000D03*
%TD*%
%TO.C,SW1*%
X86000000Y-62500000D03*
X86000000Y-66000000D03*
X86000000Y-70000000D03*
%TD*%
D11*
%TO.C,R1*%
X71000000Y-79460000D03*
D12*
X71000000Y-84540000D03*
%TD*%
D13*
%TO.C,J1*%
X60025000Y-79025000D03*
X60025000Y-79875000D03*
X60025000Y-80725000D03*
X60025000Y-81575000D03*
X60025000Y-82425000D03*
X60025000Y-83275000D03*
X60025000Y-84125000D03*
X60025000Y-84975000D03*
X58675000Y-84975000D03*
X58675000Y-84125000D03*
X58675000Y-83275000D03*
X58675000Y-82425000D03*
X58675000Y-81575000D03*
X58675000Y-80725000D03*
X58675000Y-79875000D03*
X58675000Y-79025000D03*
D14*
X55665000Y-86325000D03*
X55665000Y-77675000D03*
D15*
X59045000Y-86325000D03*
X59045000Y-77675000D03*
%TD*%
D16*
%TO.C,D9*%
X161730000Y-98000000D03*
X164270000Y-98000000D03*
X165540000Y-98000000D03*
D17*
X163000000Y-98000000D03*
%TD*%
D16*
%TO.C,D8*%
X149460000Y-98000000D03*
X152000000Y-98000000D03*
X153270000Y-98000000D03*
D17*
X150730000Y-98000000D03*
%TD*%
D16*
%TO.C,D7*%
X138190000Y-98000000D03*
X140730000Y-98000000D03*
X142000000Y-98000000D03*
D17*
X139460000Y-98000000D03*
%TD*%
D16*
%TO.C,D6*%
X161730000Y-82000000D03*
X164270000Y-82000000D03*
X165540000Y-82000000D03*
D17*
X163000000Y-82000000D03*
%TD*%
D16*
%TO.C,D5*%
X149460000Y-82000000D03*
X152000000Y-82000000D03*
X153270000Y-82000000D03*
D17*
X150730000Y-82000000D03*
%TD*%
%TO.C,D4*%
X139460000Y-82000000D03*
D16*
X142000000Y-82000000D03*
X140730000Y-82000000D03*
X138190000Y-82000000D03*
%TD*%
D17*
%TO.C,D3*%
X163000000Y-66000000D03*
D16*
X165540000Y-66000000D03*
X164270000Y-66000000D03*
X161730000Y-66000000D03*
%TD*%
%TO.C,D2*%
X149460000Y-66000000D03*
X152000000Y-66000000D03*
X153270000Y-66000000D03*
D17*
X150730000Y-66000000D03*
%TD*%
%TO.C,D1*%
X139460000Y-66000000D03*
D16*
X142000000Y-66000000D03*
X140730000Y-66000000D03*
X138190000Y-66000000D03*
%TD*%
M02*
