%TF.GenerationSoftware,KiCad,Pcbnew,7.0.2*%
%TF.CreationDate,2024-02-04T01:23:05+01:00*%
%TF.ProjectId,TicTacToe,54696354-6163-4546-9f65-2e6b69636164,rev?*%
%TF.SameCoordinates,Original*%
%TF.FileFunction,Legend,Top*%
%TF.FilePolarity,Positive*%
%FSLAX46Y46*%
G04 Gerber Fmt 4.6, Leading zero omitted, Abs format (unit mm)*
G04 Created by KiCad (PCBNEW 7.0.2) date 2024-02-04 01:23:05*
%MOMM*%
%LPD*%
G01*
G04 APERTURE LIST*
%ADD10C,0.100000*%
%ADD11C,0.150000*%
%ADD12C,0.120000*%
G04 APERTURE END LIST*
D10*
%TO.C,SW9*%
X106085000Y-100166667D02*
X106037380Y-100309524D01*
X106037380Y-100309524D02*
X106037380Y-100547619D01*
X106037380Y-100547619D02*
X106085000Y-100642857D01*
X106085000Y-100642857D02*
X106132619Y-100690476D01*
X106132619Y-100690476D02*
X106227857Y-100738095D01*
X106227857Y-100738095D02*
X106323095Y-100738095D01*
X106323095Y-100738095D02*
X106418333Y-100690476D01*
X106418333Y-100690476D02*
X106465952Y-100642857D01*
X106465952Y-100642857D02*
X106513571Y-100547619D01*
X106513571Y-100547619D02*
X106561190Y-100357143D01*
X106561190Y-100357143D02*
X106608809Y-100261905D01*
X106608809Y-100261905D02*
X106656428Y-100214286D01*
X106656428Y-100214286D02*
X106751666Y-100166667D01*
X106751666Y-100166667D02*
X106846904Y-100166667D01*
X106846904Y-100166667D02*
X106942142Y-100214286D01*
X106942142Y-100214286D02*
X106989761Y-100261905D01*
X106989761Y-100261905D02*
X107037380Y-100357143D01*
X107037380Y-100357143D02*
X107037380Y-100595238D01*
X107037380Y-100595238D02*
X106989761Y-100738095D01*
X107037380Y-101071429D02*
X106037380Y-101309524D01*
X106037380Y-101309524D02*
X106751666Y-101500000D01*
X106751666Y-101500000D02*
X106037380Y-101690476D01*
X106037380Y-101690476D02*
X107037380Y-101928572D01*
X106037380Y-102357143D02*
X106037380Y-102547619D01*
X106037380Y-102547619D02*
X106085000Y-102642857D01*
X106085000Y-102642857D02*
X106132619Y-102690476D01*
X106132619Y-102690476D02*
X106275476Y-102785714D01*
X106275476Y-102785714D02*
X106465952Y-102833333D01*
X106465952Y-102833333D02*
X106846904Y-102833333D01*
X106846904Y-102833333D02*
X106942142Y-102785714D01*
X106942142Y-102785714D02*
X106989761Y-102738095D01*
X106989761Y-102738095D02*
X107037380Y-102642857D01*
X107037380Y-102642857D02*
X107037380Y-102452381D01*
X107037380Y-102452381D02*
X106989761Y-102357143D01*
X106989761Y-102357143D02*
X106942142Y-102309524D01*
X106942142Y-102309524D02*
X106846904Y-102261905D01*
X106846904Y-102261905D02*
X106608809Y-102261905D01*
X106608809Y-102261905D02*
X106513571Y-102309524D01*
X106513571Y-102309524D02*
X106465952Y-102357143D01*
X106465952Y-102357143D02*
X106418333Y-102452381D01*
X106418333Y-102452381D02*
X106418333Y-102642857D01*
X106418333Y-102642857D02*
X106465952Y-102738095D01*
X106465952Y-102738095D02*
X106513571Y-102785714D01*
X106513571Y-102785714D02*
X106608809Y-102833333D01*
%TO.C,SW8*%
X94085000Y-100166667D02*
X94037380Y-100309524D01*
X94037380Y-100309524D02*
X94037380Y-100547619D01*
X94037380Y-100547619D02*
X94085000Y-100642857D01*
X94085000Y-100642857D02*
X94132619Y-100690476D01*
X94132619Y-100690476D02*
X94227857Y-100738095D01*
X94227857Y-100738095D02*
X94323095Y-100738095D01*
X94323095Y-100738095D02*
X94418333Y-100690476D01*
X94418333Y-100690476D02*
X94465952Y-100642857D01*
X94465952Y-100642857D02*
X94513571Y-100547619D01*
X94513571Y-100547619D02*
X94561190Y-100357143D01*
X94561190Y-100357143D02*
X94608809Y-100261905D01*
X94608809Y-100261905D02*
X94656428Y-100214286D01*
X94656428Y-100214286D02*
X94751666Y-100166667D01*
X94751666Y-100166667D02*
X94846904Y-100166667D01*
X94846904Y-100166667D02*
X94942142Y-100214286D01*
X94942142Y-100214286D02*
X94989761Y-100261905D01*
X94989761Y-100261905D02*
X95037380Y-100357143D01*
X95037380Y-100357143D02*
X95037380Y-100595238D01*
X95037380Y-100595238D02*
X94989761Y-100738095D01*
X95037380Y-101071429D02*
X94037380Y-101309524D01*
X94037380Y-101309524D02*
X94751666Y-101500000D01*
X94751666Y-101500000D02*
X94037380Y-101690476D01*
X94037380Y-101690476D02*
X95037380Y-101928572D01*
X94608809Y-102452381D02*
X94656428Y-102357143D01*
X94656428Y-102357143D02*
X94704047Y-102309524D01*
X94704047Y-102309524D02*
X94799285Y-102261905D01*
X94799285Y-102261905D02*
X94846904Y-102261905D01*
X94846904Y-102261905D02*
X94942142Y-102309524D01*
X94942142Y-102309524D02*
X94989761Y-102357143D01*
X94989761Y-102357143D02*
X95037380Y-102452381D01*
X95037380Y-102452381D02*
X95037380Y-102642857D01*
X95037380Y-102642857D02*
X94989761Y-102738095D01*
X94989761Y-102738095D02*
X94942142Y-102785714D01*
X94942142Y-102785714D02*
X94846904Y-102833333D01*
X94846904Y-102833333D02*
X94799285Y-102833333D01*
X94799285Y-102833333D02*
X94704047Y-102785714D01*
X94704047Y-102785714D02*
X94656428Y-102738095D01*
X94656428Y-102738095D02*
X94608809Y-102642857D01*
X94608809Y-102642857D02*
X94608809Y-102452381D01*
X94608809Y-102452381D02*
X94561190Y-102357143D01*
X94561190Y-102357143D02*
X94513571Y-102309524D01*
X94513571Y-102309524D02*
X94418333Y-102261905D01*
X94418333Y-102261905D02*
X94227857Y-102261905D01*
X94227857Y-102261905D02*
X94132619Y-102309524D01*
X94132619Y-102309524D02*
X94085000Y-102357143D01*
X94085000Y-102357143D02*
X94037380Y-102452381D01*
X94037380Y-102452381D02*
X94037380Y-102642857D01*
X94037380Y-102642857D02*
X94085000Y-102738095D01*
X94085000Y-102738095D02*
X94132619Y-102785714D01*
X94132619Y-102785714D02*
X94227857Y-102833333D01*
X94227857Y-102833333D02*
X94418333Y-102833333D01*
X94418333Y-102833333D02*
X94513571Y-102785714D01*
X94513571Y-102785714D02*
X94561190Y-102738095D01*
X94561190Y-102738095D02*
X94608809Y-102642857D01*
%TO.C,SW7*%
X82085000Y-100166667D02*
X82037380Y-100309524D01*
X82037380Y-100309524D02*
X82037380Y-100547619D01*
X82037380Y-100547619D02*
X82085000Y-100642857D01*
X82085000Y-100642857D02*
X82132619Y-100690476D01*
X82132619Y-100690476D02*
X82227857Y-100738095D01*
X82227857Y-100738095D02*
X82323095Y-100738095D01*
X82323095Y-100738095D02*
X82418333Y-100690476D01*
X82418333Y-100690476D02*
X82465952Y-100642857D01*
X82465952Y-100642857D02*
X82513571Y-100547619D01*
X82513571Y-100547619D02*
X82561190Y-100357143D01*
X82561190Y-100357143D02*
X82608809Y-100261905D01*
X82608809Y-100261905D02*
X82656428Y-100214286D01*
X82656428Y-100214286D02*
X82751666Y-100166667D01*
X82751666Y-100166667D02*
X82846904Y-100166667D01*
X82846904Y-100166667D02*
X82942142Y-100214286D01*
X82942142Y-100214286D02*
X82989761Y-100261905D01*
X82989761Y-100261905D02*
X83037380Y-100357143D01*
X83037380Y-100357143D02*
X83037380Y-100595238D01*
X83037380Y-100595238D02*
X82989761Y-100738095D01*
X83037380Y-101071429D02*
X82037380Y-101309524D01*
X82037380Y-101309524D02*
X82751666Y-101500000D01*
X82751666Y-101500000D02*
X82037380Y-101690476D01*
X82037380Y-101690476D02*
X83037380Y-101928572D01*
X83037380Y-102214286D02*
X83037380Y-102880952D01*
X83037380Y-102880952D02*
X82037380Y-102452381D01*
%TO.C,SW6*%
X106085000Y-84166667D02*
X106037380Y-84309524D01*
X106037380Y-84309524D02*
X106037380Y-84547619D01*
X106037380Y-84547619D02*
X106085000Y-84642857D01*
X106085000Y-84642857D02*
X106132619Y-84690476D01*
X106132619Y-84690476D02*
X106227857Y-84738095D01*
X106227857Y-84738095D02*
X106323095Y-84738095D01*
X106323095Y-84738095D02*
X106418333Y-84690476D01*
X106418333Y-84690476D02*
X106465952Y-84642857D01*
X106465952Y-84642857D02*
X106513571Y-84547619D01*
X106513571Y-84547619D02*
X106561190Y-84357143D01*
X106561190Y-84357143D02*
X106608809Y-84261905D01*
X106608809Y-84261905D02*
X106656428Y-84214286D01*
X106656428Y-84214286D02*
X106751666Y-84166667D01*
X106751666Y-84166667D02*
X106846904Y-84166667D01*
X106846904Y-84166667D02*
X106942142Y-84214286D01*
X106942142Y-84214286D02*
X106989761Y-84261905D01*
X106989761Y-84261905D02*
X107037380Y-84357143D01*
X107037380Y-84357143D02*
X107037380Y-84595238D01*
X107037380Y-84595238D02*
X106989761Y-84738095D01*
X107037380Y-85071429D02*
X106037380Y-85309524D01*
X106037380Y-85309524D02*
X106751666Y-85500000D01*
X106751666Y-85500000D02*
X106037380Y-85690476D01*
X106037380Y-85690476D02*
X107037380Y-85928572D01*
X107037380Y-86738095D02*
X107037380Y-86547619D01*
X107037380Y-86547619D02*
X106989761Y-86452381D01*
X106989761Y-86452381D02*
X106942142Y-86404762D01*
X106942142Y-86404762D02*
X106799285Y-86309524D01*
X106799285Y-86309524D02*
X106608809Y-86261905D01*
X106608809Y-86261905D02*
X106227857Y-86261905D01*
X106227857Y-86261905D02*
X106132619Y-86309524D01*
X106132619Y-86309524D02*
X106085000Y-86357143D01*
X106085000Y-86357143D02*
X106037380Y-86452381D01*
X106037380Y-86452381D02*
X106037380Y-86642857D01*
X106037380Y-86642857D02*
X106085000Y-86738095D01*
X106085000Y-86738095D02*
X106132619Y-86785714D01*
X106132619Y-86785714D02*
X106227857Y-86833333D01*
X106227857Y-86833333D02*
X106465952Y-86833333D01*
X106465952Y-86833333D02*
X106561190Y-86785714D01*
X106561190Y-86785714D02*
X106608809Y-86738095D01*
X106608809Y-86738095D02*
X106656428Y-86642857D01*
X106656428Y-86642857D02*
X106656428Y-86452381D01*
X106656428Y-86452381D02*
X106608809Y-86357143D01*
X106608809Y-86357143D02*
X106561190Y-86309524D01*
X106561190Y-86309524D02*
X106465952Y-86261905D01*
%TO.C,SW5*%
X94085000Y-84166667D02*
X94037380Y-84309524D01*
X94037380Y-84309524D02*
X94037380Y-84547619D01*
X94037380Y-84547619D02*
X94085000Y-84642857D01*
X94085000Y-84642857D02*
X94132619Y-84690476D01*
X94132619Y-84690476D02*
X94227857Y-84738095D01*
X94227857Y-84738095D02*
X94323095Y-84738095D01*
X94323095Y-84738095D02*
X94418333Y-84690476D01*
X94418333Y-84690476D02*
X94465952Y-84642857D01*
X94465952Y-84642857D02*
X94513571Y-84547619D01*
X94513571Y-84547619D02*
X94561190Y-84357143D01*
X94561190Y-84357143D02*
X94608809Y-84261905D01*
X94608809Y-84261905D02*
X94656428Y-84214286D01*
X94656428Y-84214286D02*
X94751666Y-84166667D01*
X94751666Y-84166667D02*
X94846904Y-84166667D01*
X94846904Y-84166667D02*
X94942142Y-84214286D01*
X94942142Y-84214286D02*
X94989761Y-84261905D01*
X94989761Y-84261905D02*
X95037380Y-84357143D01*
X95037380Y-84357143D02*
X95037380Y-84595238D01*
X95037380Y-84595238D02*
X94989761Y-84738095D01*
X95037380Y-85071429D02*
X94037380Y-85309524D01*
X94037380Y-85309524D02*
X94751666Y-85500000D01*
X94751666Y-85500000D02*
X94037380Y-85690476D01*
X94037380Y-85690476D02*
X95037380Y-85928572D01*
X95037380Y-86785714D02*
X95037380Y-86309524D01*
X95037380Y-86309524D02*
X94561190Y-86261905D01*
X94561190Y-86261905D02*
X94608809Y-86309524D01*
X94608809Y-86309524D02*
X94656428Y-86404762D01*
X94656428Y-86404762D02*
X94656428Y-86642857D01*
X94656428Y-86642857D02*
X94608809Y-86738095D01*
X94608809Y-86738095D02*
X94561190Y-86785714D01*
X94561190Y-86785714D02*
X94465952Y-86833333D01*
X94465952Y-86833333D02*
X94227857Y-86833333D01*
X94227857Y-86833333D02*
X94132619Y-86785714D01*
X94132619Y-86785714D02*
X94085000Y-86738095D01*
X94085000Y-86738095D02*
X94037380Y-86642857D01*
X94037380Y-86642857D02*
X94037380Y-86404762D01*
X94037380Y-86404762D02*
X94085000Y-86309524D01*
X94085000Y-86309524D02*
X94132619Y-86261905D01*
%TO.C,SW4*%
X82085000Y-84166667D02*
X82037380Y-84309524D01*
X82037380Y-84309524D02*
X82037380Y-84547619D01*
X82037380Y-84547619D02*
X82085000Y-84642857D01*
X82085000Y-84642857D02*
X82132619Y-84690476D01*
X82132619Y-84690476D02*
X82227857Y-84738095D01*
X82227857Y-84738095D02*
X82323095Y-84738095D01*
X82323095Y-84738095D02*
X82418333Y-84690476D01*
X82418333Y-84690476D02*
X82465952Y-84642857D01*
X82465952Y-84642857D02*
X82513571Y-84547619D01*
X82513571Y-84547619D02*
X82561190Y-84357143D01*
X82561190Y-84357143D02*
X82608809Y-84261905D01*
X82608809Y-84261905D02*
X82656428Y-84214286D01*
X82656428Y-84214286D02*
X82751666Y-84166667D01*
X82751666Y-84166667D02*
X82846904Y-84166667D01*
X82846904Y-84166667D02*
X82942142Y-84214286D01*
X82942142Y-84214286D02*
X82989761Y-84261905D01*
X82989761Y-84261905D02*
X83037380Y-84357143D01*
X83037380Y-84357143D02*
X83037380Y-84595238D01*
X83037380Y-84595238D02*
X82989761Y-84738095D01*
X83037380Y-85071429D02*
X82037380Y-85309524D01*
X82037380Y-85309524D02*
X82751666Y-85500000D01*
X82751666Y-85500000D02*
X82037380Y-85690476D01*
X82037380Y-85690476D02*
X83037380Y-85928572D01*
X82704047Y-86738095D02*
X82037380Y-86738095D01*
X83085000Y-86500000D02*
X82370714Y-86261905D01*
X82370714Y-86261905D02*
X82370714Y-86880952D01*
%TO.C,SW3*%
X106085000Y-68166667D02*
X106037380Y-68309524D01*
X106037380Y-68309524D02*
X106037380Y-68547619D01*
X106037380Y-68547619D02*
X106085000Y-68642857D01*
X106085000Y-68642857D02*
X106132619Y-68690476D01*
X106132619Y-68690476D02*
X106227857Y-68738095D01*
X106227857Y-68738095D02*
X106323095Y-68738095D01*
X106323095Y-68738095D02*
X106418333Y-68690476D01*
X106418333Y-68690476D02*
X106465952Y-68642857D01*
X106465952Y-68642857D02*
X106513571Y-68547619D01*
X106513571Y-68547619D02*
X106561190Y-68357143D01*
X106561190Y-68357143D02*
X106608809Y-68261905D01*
X106608809Y-68261905D02*
X106656428Y-68214286D01*
X106656428Y-68214286D02*
X106751666Y-68166667D01*
X106751666Y-68166667D02*
X106846904Y-68166667D01*
X106846904Y-68166667D02*
X106942142Y-68214286D01*
X106942142Y-68214286D02*
X106989761Y-68261905D01*
X106989761Y-68261905D02*
X107037380Y-68357143D01*
X107037380Y-68357143D02*
X107037380Y-68595238D01*
X107037380Y-68595238D02*
X106989761Y-68738095D01*
X107037380Y-69071429D02*
X106037380Y-69309524D01*
X106037380Y-69309524D02*
X106751666Y-69500000D01*
X106751666Y-69500000D02*
X106037380Y-69690476D01*
X106037380Y-69690476D02*
X107037380Y-69928572D01*
X107037380Y-70214286D02*
X107037380Y-70833333D01*
X107037380Y-70833333D02*
X106656428Y-70500000D01*
X106656428Y-70500000D02*
X106656428Y-70642857D01*
X106656428Y-70642857D02*
X106608809Y-70738095D01*
X106608809Y-70738095D02*
X106561190Y-70785714D01*
X106561190Y-70785714D02*
X106465952Y-70833333D01*
X106465952Y-70833333D02*
X106227857Y-70833333D01*
X106227857Y-70833333D02*
X106132619Y-70785714D01*
X106132619Y-70785714D02*
X106085000Y-70738095D01*
X106085000Y-70738095D02*
X106037380Y-70642857D01*
X106037380Y-70642857D02*
X106037380Y-70357143D01*
X106037380Y-70357143D02*
X106085000Y-70261905D01*
X106085000Y-70261905D02*
X106132619Y-70214286D01*
%TO.C,SW2*%
X94085000Y-68166667D02*
X94037380Y-68309524D01*
X94037380Y-68309524D02*
X94037380Y-68547619D01*
X94037380Y-68547619D02*
X94085000Y-68642857D01*
X94085000Y-68642857D02*
X94132619Y-68690476D01*
X94132619Y-68690476D02*
X94227857Y-68738095D01*
X94227857Y-68738095D02*
X94323095Y-68738095D01*
X94323095Y-68738095D02*
X94418333Y-68690476D01*
X94418333Y-68690476D02*
X94465952Y-68642857D01*
X94465952Y-68642857D02*
X94513571Y-68547619D01*
X94513571Y-68547619D02*
X94561190Y-68357143D01*
X94561190Y-68357143D02*
X94608809Y-68261905D01*
X94608809Y-68261905D02*
X94656428Y-68214286D01*
X94656428Y-68214286D02*
X94751666Y-68166667D01*
X94751666Y-68166667D02*
X94846904Y-68166667D01*
X94846904Y-68166667D02*
X94942142Y-68214286D01*
X94942142Y-68214286D02*
X94989761Y-68261905D01*
X94989761Y-68261905D02*
X95037380Y-68357143D01*
X95037380Y-68357143D02*
X95037380Y-68595238D01*
X95037380Y-68595238D02*
X94989761Y-68738095D01*
X95037380Y-69071429D02*
X94037380Y-69309524D01*
X94037380Y-69309524D02*
X94751666Y-69500000D01*
X94751666Y-69500000D02*
X94037380Y-69690476D01*
X94037380Y-69690476D02*
X95037380Y-69928572D01*
X94942142Y-70261905D02*
X94989761Y-70309524D01*
X94989761Y-70309524D02*
X95037380Y-70404762D01*
X95037380Y-70404762D02*
X95037380Y-70642857D01*
X95037380Y-70642857D02*
X94989761Y-70738095D01*
X94989761Y-70738095D02*
X94942142Y-70785714D01*
X94942142Y-70785714D02*
X94846904Y-70833333D01*
X94846904Y-70833333D02*
X94751666Y-70833333D01*
X94751666Y-70833333D02*
X94608809Y-70785714D01*
X94608809Y-70785714D02*
X94037380Y-70214286D01*
X94037380Y-70214286D02*
X94037380Y-70833333D01*
%TO.C,SW1*%
X82085000Y-68166667D02*
X82037380Y-68309524D01*
X82037380Y-68309524D02*
X82037380Y-68547619D01*
X82037380Y-68547619D02*
X82085000Y-68642857D01*
X82085000Y-68642857D02*
X82132619Y-68690476D01*
X82132619Y-68690476D02*
X82227857Y-68738095D01*
X82227857Y-68738095D02*
X82323095Y-68738095D01*
X82323095Y-68738095D02*
X82418333Y-68690476D01*
X82418333Y-68690476D02*
X82465952Y-68642857D01*
X82465952Y-68642857D02*
X82513571Y-68547619D01*
X82513571Y-68547619D02*
X82561190Y-68357143D01*
X82561190Y-68357143D02*
X82608809Y-68261905D01*
X82608809Y-68261905D02*
X82656428Y-68214286D01*
X82656428Y-68214286D02*
X82751666Y-68166667D01*
X82751666Y-68166667D02*
X82846904Y-68166667D01*
X82846904Y-68166667D02*
X82942142Y-68214286D01*
X82942142Y-68214286D02*
X82989761Y-68261905D01*
X82989761Y-68261905D02*
X83037380Y-68357143D01*
X83037380Y-68357143D02*
X83037380Y-68595238D01*
X83037380Y-68595238D02*
X82989761Y-68738095D01*
X83037380Y-69071429D02*
X82037380Y-69309524D01*
X82037380Y-69309524D02*
X82751666Y-69500000D01*
X82751666Y-69500000D02*
X82037380Y-69690476D01*
X82037380Y-69690476D02*
X83037380Y-69928572D01*
X82037380Y-70833333D02*
X82037380Y-70261905D01*
X82037380Y-70547619D02*
X83037380Y-70547619D01*
X83037380Y-70547619D02*
X82894523Y-70452381D01*
X82894523Y-70452381D02*
X82799285Y-70357143D01*
X82799285Y-70357143D02*
X82751666Y-70261905D01*
D11*
%TO.C,R1*%
X73382619Y-82166666D02*
X72906428Y-82499999D01*
X73382619Y-82738094D02*
X72382619Y-82738094D01*
X72382619Y-82738094D02*
X72382619Y-82357142D01*
X72382619Y-82357142D02*
X72430238Y-82261904D01*
X72430238Y-82261904D02*
X72477857Y-82214285D01*
X72477857Y-82214285D02*
X72573095Y-82166666D01*
X72573095Y-82166666D02*
X72715952Y-82166666D01*
X72715952Y-82166666D02*
X72811190Y-82214285D01*
X72811190Y-82214285D02*
X72858809Y-82261904D01*
X72858809Y-82261904D02*
X72906428Y-82357142D01*
X72906428Y-82357142D02*
X72906428Y-82738094D01*
X73382619Y-81214285D02*
X73382619Y-81785713D01*
X73382619Y-81499999D02*
X72382619Y-81499999D01*
X72382619Y-81499999D02*
X72525476Y-81595237D01*
X72525476Y-81595237D02*
X72620714Y-81690475D01*
X72620714Y-81690475D02*
X72668333Y-81785713D01*
%TO.C,J1*%
X61287619Y-82333333D02*
X62001904Y-82333333D01*
X62001904Y-82333333D02*
X62144761Y-82380952D01*
X62144761Y-82380952D02*
X62240000Y-82476190D01*
X62240000Y-82476190D02*
X62287619Y-82619047D01*
X62287619Y-82619047D02*
X62287619Y-82714285D01*
X62287619Y-81333333D02*
X62287619Y-81904761D01*
X62287619Y-81619047D02*
X61287619Y-81619047D01*
X61287619Y-81619047D02*
X61430476Y-81714285D01*
X61430476Y-81714285D02*
X61525714Y-81809523D01*
X61525714Y-81809523D02*
X61573333Y-81904761D01*
%TO.C,D9*%
X162896905Y-94502619D02*
X162896905Y-93502619D01*
X162896905Y-93502619D02*
X163135000Y-93502619D01*
X163135000Y-93502619D02*
X163277857Y-93550238D01*
X163277857Y-93550238D02*
X163373095Y-93645476D01*
X163373095Y-93645476D02*
X163420714Y-93740714D01*
X163420714Y-93740714D02*
X163468333Y-93931190D01*
X163468333Y-93931190D02*
X163468333Y-94074047D01*
X163468333Y-94074047D02*
X163420714Y-94264523D01*
X163420714Y-94264523D02*
X163373095Y-94359761D01*
X163373095Y-94359761D02*
X163277857Y-94455000D01*
X163277857Y-94455000D02*
X163135000Y-94502619D01*
X163135000Y-94502619D02*
X162896905Y-94502619D01*
X163944524Y-94502619D02*
X164135000Y-94502619D01*
X164135000Y-94502619D02*
X164230238Y-94455000D01*
X164230238Y-94455000D02*
X164277857Y-94407380D01*
X164277857Y-94407380D02*
X164373095Y-94264523D01*
X164373095Y-94264523D02*
X164420714Y-94074047D01*
X164420714Y-94074047D02*
X164420714Y-93693095D01*
X164420714Y-93693095D02*
X164373095Y-93597857D01*
X164373095Y-93597857D02*
X164325476Y-93550238D01*
X164325476Y-93550238D02*
X164230238Y-93502619D01*
X164230238Y-93502619D02*
X164039762Y-93502619D01*
X164039762Y-93502619D02*
X163944524Y-93550238D01*
X163944524Y-93550238D02*
X163896905Y-93597857D01*
X163896905Y-93597857D02*
X163849286Y-93693095D01*
X163849286Y-93693095D02*
X163849286Y-93931190D01*
X163849286Y-93931190D02*
X163896905Y-94026428D01*
X163896905Y-94026428D02*
X163944524Y-94074047D01*
X163944524Y-94074047D02*
X164039762Y-94121666D01*
X164039762Y-94121666D02*
X164230238Y-94121666D01*
X164230238Y-94121666D02*
X164325476Y-94074047D01*
X164325476Y-94074047D02*
X164373095Y-94026428D01*
X164373095Y-94026428D02*
X164420714Y-93931190D01*
%TO.C,D8*%
X150626905Y-94502619D02*
X150626905Y-93502619D01*
X150626905Y-93502619D02*
X150865000Y-93502619D01*
X150865000Y-93502619D02*
X151007857Y-93550238D01*
X151007857Y-93550238D02*
X151103095Y-93645476D01*
X151103095Y-93645476D02*
X151150714Y-93740714D01*
X151150714Y-93740714D02*
X151198333Y-93931190D01*
X151198333Y-93931190D02*
X151198333Y-94074047D01*
X151198333Y-94074047D02*
X151150714Y-94264523D01*
X151150714Y-94264523D02*
X151103095Y-94359761D01*
X151103095Y-94359761D02*
X151007857Y-94455000D01*
X151007857Y-94455000D02*
X150865000Y-94502619D01*
X150865000Y-94502619D02*
X150626905Y-94502619D01*
X151769762Y-93931190D02*
X151674524Y-93883571D01*
X151674524Y-93883571D02*
X151626905Y-93835952D01*
X151626905Y-93835952D02*
X151579286Y-93740714D01*
X151579286Y-93740714D02*
X151579286Y-93693095D01*
X151579286Y-93693095D02*
X151626905Y-93597857D01*
X151626905Y-93597857D02*
X151674524Y-93550238D01*
X151674524Y-93550238D02*
X151769762Y-93502619D01*
X151769762Y-93502619D02*
X151960238Y-93502619D01*
X151960238Y-93502619D02*
X152055476Y-93550238D01*
X152055476Y-93550238D02*
X152103095Y-93597857D01*
X152103095Y-93597857D02*
X152150714Y-93693095D01*
X152150714Y-93693095D02*
X152150714Y-93740714D01*
X152150714Y-93740714D02*
X152103095Y-93835952D01*
X152103095Y-93835952D02*
X152055476Y-93883571D01*
X152055476Y-93883571D02*
X151960238Y-93931190D01*
X151960238Y-93931190D02*
X151769762Y-93931190D01*
X151769762Y-93931190D02*
X151674524Y-93978809D01*
X151674524Y-93978809D02*
X151626905Y-94026428D01*
X151626905Y-94026428D02*
X151579286Y-94121666D01*
X151579286Y-94121666D02*
X151579286Y-94312142D01*
X151579286Y-94312142D02*
X151626905Y-94407380D01*
X151626905Y-94407380D02*
X151674524Y-94455000D01*
X151674524Y-94455000D02*
X151769762Y-94502619D01*
X151769762Y-94502619D02*
X151960238Y-94502619D01*
X151960238Y-94502619D02*
X152055476Y-94455000D01*
X152055476Y-94455000D02*
X152103095Y-94407380D01*
X152103095Y-94407380D02*
X152150714Y-94312142D01*
X152150714Y-94312142D02*
X152150714Y-94121666D01*
X152150714Y-94121666D02*
X152103095Y-94026428D01*
X152103095Y-94026428D02*
X152055476Y-93978809D01*
X152055476Y-93978809D02*
X151960238Y-93931190D01*
%TO.C,D7*%
X139356905Y-94502619D02*
X139356905Y-93502619D01*
X139356905Y-93502619D02*
X139595000Y-93502619D01*
X139595000Y-93502619D02*
X139737857Y-93550238D01*
X139737857Y-93550238D02*
X139833095Y-93645476D01*
X139833095Y-93645476D02*
X139880714Y-93740714D01*
X139880714Y-93740714D02*
X139928333Y-93931190D01*
X139928333Y-93931190D02*
X139928333Y-94074047D01*
X139928333Y-94074047D02*
X139880714Y-94264523D01*
X139880714Y-94264523D02*
X139833095Y-94359761D01*
X139833095Y-94359761D02*
X139737857Y-94455000D01*
X139737857Y-94455000D02*
X139595000Y-94502619D01*
X139595000Y-94502619D02*
X139356905Y-94502619D01*
X140261667Y-93502619D02*
X140928333Y-93502619D01*
X140928333Y-93502619D02*
X140499762Y-94502619D01*
%TO.C,D6*%
X162896905Y-78502619D02*
X162896905Y-77502619D01*
X162896905Y-77502619D02*
X163135000Y-77502619D01*
X163135000Y-77502619D02*
X163277857Y-77550238D01*
X163277857Y-77550238D02*
X163373095Y-77645476D01*
X163373095Y-77645476D02*
X163420714Y-77740714D01*
X163420714Y-77740714D02*
X163468333Y-77931190D01*
X163468333Y-77931190D02*
X163468333Y-78074047D01*
X163468333Y-78074047D02*
X163420714Y-78264523D01*
X163420714Y-78264523D02*
X163373095Y-78359761D01*
X163373095Y-78359761D02*
X163277857Y-78455000D01*
X163277857Y-78455000D02*
X163135000Y-78502619D01*
X163135000Y-78502619D02*
X162896905Y-78502619D01*
X164325476Y-77502619D02*
X164135000Y-77502619D01*
X164135000Y-77502619D02*
X164039762Y-77550238D01*
X164039762Y-77550238D02*
X163992143Y-77597857D01*
X163992143Y-77597857D02*
X163896905Y-77740714D01*
X163896905Y-77740714D02*
X163849286Y-77931190D01*
X163849286Y-77931190D02*
X163849286Y-78312142D01*
X163849286Y-78312142D02*
X163896905Y-78407380D01*
X163896905Y-78407380D02*
X163944524Y-78455000D01*
X163944524Y-78455000D02*
X164039762Y-78502619D01*
X164039762Y-78502619D02*
X164230238Y-78502619D01*
X164230238Y-78502619D02*
X164325476Y-78455000D01*
X164325476Y-78455000D02*
X164373095Y-78407380D01*
X164373095Y-78407380D02*
X164420714Y-78312142D01*
X164420714Y-78312142D02*
X164420714Y-78074047D01*
X164420714Y-78074047D02*
X164373095Y-77978809D01*
X164373095Y-77978809D02*
X164325476Y-77931190D01*
X164325476Y-77931190D02*
X164230238Y-77883571D01*
X164230238Y-77883571D02*
X164039762Y-77883571D01*
X164039762Y-77883571D02*
X163944524Y-77931190D01*
X163944524Y-77931190D02*
X163896905Y-77978809D01*
X163896905Y-77978809D02*
X163849286Y-78074047D01*
%TO.C,D5*%
X150626905Y-78502619D02*
X150626905Y-77502619D01*
X150626905Y-77502619D02*
X150865000Y-77502619D01*
X150865000Y-77502619D02*
X151007857Y-77550238D01*
X151007857Y-77550238D02*
X151103095Y-77645476D01*
X151103095Y-77645476D02*
X151150714Y-77740714D01*
X151150714Y-77740714D02*
X151198333Y-77931190D01*
X151198333Y-77931190D02*
X151198333Y-78074047D01*
X151198333Y-78074047D02*
X151150714Y-78264523D01*
X151150714Y-78264523D02*
X151103095Y-78359761D01*
X151103095Y-78359761D02*
X151007857Y-78455000D01*
X151007857Y-78455000D02*
X150865000Y-78502619D01*
X150865000Y-78502619D02*
X150626905Y-78502619D01*
X152103095Y-77502619D02*
X151626905Y-77502619D01*
X151626905Y-77502619D02*
X151579286Y-77978809D01*
X151579286Y-77978809D02*
X151626905Y-77931190D01*
X151626905Y-77931190D02*
X151722143Y-77883571D01*
X151722143Y-77883571D02*
X151960238Y-77883571D01*
X151960238Y-77883571D02*
X152055476Y-77931190D01*
X152055476Y-77931190D02*
X152103095Y-77978809D01*
X152103095Y-77978809D02*
X152150714Y-78074047D01*
X152150714Y-78074047D02*
X152150714Y-78312142D01*
X152150714Y-78312142D02*
X152103095Y-78407380D01*
X152103095Y-78407380D02*
X152055476Y-78455000D01*
X152055476Y-78455000D02*
X151960238Y-78502619D01*
X151960238Y-78502619D02*
X151722143Y-78502619D01*
X151722143Y-78502619D02*
X151626905Y-78455000D01*
X151626905Y-78455000D02*
X151579286Y-78407380D01*
%TO.C,D4*%
X139356905Y-78502619D02*
X139356905Y-77502619D01*
X139356905Y-77502619D02*
X139595000Y-77502619D01*
X139595000Y-77502619D02*
X139737857Y-77550238D01*
X139737857Y-77550238D02*
X139833095Y-77645476D01*
X139833095Y-77645476D02*
X139880714Y-77740714D01*
X139880714Y-77740714D02*
X139928333Y-77931190D01*
X139928333Y-77931190D02*
X139928333Y-78074047D01*
X139928333Y-78074047D02*
X139880714Y-78264523D01*
X139880714Y-78264523D02*
X139833095Y-78359761D01*
X139833095Y-78359761D02*
X139737857Y-78455000D01*
X139737857Y-78455000D02*
X139595000Y-78502619D01*
X139595000Y-78502619D02*
X139356905Y-78502619D01*
X140785476Y-77835952D02*
X140785476Y-78502619D01*
X140547381Y-77455000D02*
X140309286Y-78169285D01*
X140309286Y-78169285D02*
X140928333Y-78169285D01*
%TO.C,D3*%
X162896905Y-62502619D02*
X162896905Y-61502619D01*
X162896905Y-61502619D02*
X163135000Y-61502619D01*
X163135000Y-61502619D02*
X163277857Y-61550238D01*
X163277857Y-61550238D02*
X163373095Y-61645476D01*
X163373095Y-61645476D02*
X163420714Y-61740714D01*
X163420714Y-61740714D02*
X163468333Y-61931190D01*
X163468333Y-61931190D02*
X163468333Y-62074047D01*
X163468333Y-62074047D02*
X163420714Y-62264523D01*
X163420714Y-62264523D02*
X163373095Y-62359761D01*
X163373095Y-62359761D02*
X163277857Y-62455000D01*
X163277857Y-62455000D02*
X163135000Y-62502619D01*
X163135000Y-62502619D02*
X162896905Y-62502619D01*
X163801667Y-61502619D02*
X164420714Y-61502619D01*
X164420714Y-61502619D02*
X164087381Y-61883571D01*
X164087381Y-61883571D02*
X164230238Y-61883571D01*
X164230238Y-61883571D02*
X164325476Y-61931190D01*
X164325476Y-61931190D02*
X164373095Y-61978809D01*
X164373095Y-61978809D02*
X164420714Y-62074047D01*
X164420714Y-62074047D02*
X164420714Y-62312142D01*
X164420714Y-62312142D02*
X164373095Y-62407380D01*
X164373095Y-62407380D02*
X164325476Y-62455000D01*
X164325476Y-62455000D02*
X164230238Y-62502619D01*
X164230238Y-62502619D02*
X163944524Y-62502619D01*
X163944524Y-62502619D02*
X163849286Y-62455000D01*
X163849286Y-62455000D02*
X163801667Y-62407380D01*
%TO.C,D2*%
X150626905Y-62502619D02*
X150626905Y-61502619D01*
X150626905Y-61502619D02*
X150865000Y-61502619D01*
X150865000Y-61502619D02*
X151007857Y-61550238D01*
X151007857Y-61550238D02*
X151103095Y-61645476D01*
X151103095Y-61645476D02*
X151150714Y-61740714D01*
X151150714Y-61740714D02*
X151198333Y-61931190D01*
X151198333Y-61931190D02*
X151198333Y-62074047D01*
X151198333Y-62074047D02*
X151150714Y-62264523D01*
X151150714Y-62264523D02*
X151103095Y-62359761D01*
X151103095Y-62359761D02*
X151007857Y-62455000D01*
X151007857Y-62455000D02*
X150865000Y-62502619D01*
X150865000Y-62502619D02*
X150626905Y-62502619D01*
X151579286Y-61597857D02*
X151626905Y-61550238D01*
X151626905Y-61550238D02*
X151722143Y-61502619D01*
X151722143Y-61502619D02*
X151960238Y-61502619D01*
X151960238Y-61502619D02*
X152055476Y-61550238D01*
X152055476Y-61550238D02*
X152103095Y-61597857D01*
X152103095Y-61597857D02*
X152150714Y-61693095D01*
X152150714Y-61693095D02*
X152150714Y-61788333D01*
X152150714Y-61788333D02*
X152103095Y-61931190D01*
X152103095Y-61931190D02*
X151531667Y-62502619D01*
X151531667Y-62502619D02*
X152150714Y-62502619D01*
%TO.C,D1*%
X139356905Y-62502619D02*
X139356905Y-61502619D01*
X139356905Y-61502619D02*
X139595000Y-61502619D01*
X139595000Y-61502619D02*
X139737857Y-61550238D01*
X139737857Y-61550238D02*
X139833095Y-61645476D01*
X139833095Y-61645476D02*
X139880714Y-61740714D01*
X139880714Y-61740714D02*
X139928333Y-61931190D01*
X139928333Y-61931190D02*
X139928333Y-62074047D01*
X139928333Y-62074047D02*
X139880714Y-62264523D01*
X139880714Y-62264523D02*
X139833095Y-62359761D01*
X139833095Y-62359761D02*
X139737857Y-62455000D01*
X139737857Y-62455000D02*
X139595000Y-62502619D01*
X139595000Y-62502619D02*
X139356905Y-62502619D01*
X140880714Y-62502619D02*
X140309286Y-62502619D01*
X140595000Y-62502619D02*
X140595000Y-61502619D01*
X140595000Y-61502619D02*
X140499762Y-61645476D01*
X140499762Y-61645476D02*
X140404524Y-61740714D01*
X140404524Y-61740714D02*
X140309286Y-61788333D01*
D10*
%TO.C,SW9*%
X113500000Y-91500000D02*
X106500000Y-91500000D01*
X106500000Y-91500000D02*
X106500000Y-104500000D01*
X106500000Y-104500000D02*
X113500000Y-104500000D01*
X113500000Y-104500000D02*
X113500000Y-91500000D01*
%TO.C,SW8*%
X101500000Y-91500000D02*
X94500000Y-91500000D01*
X94500000Y-91500000D02*
X94500000Y-104500000D01*
X94500000Y-104500000D02*
X101500000Y-104500000D01*
X101500000Y-104500000D02*
X101500000Y-91500000D01*
%TO.C,SW7*%
X89500000Y-91500000D02*
X82500000Y-91500000D01*
X82500000Y-91500000D02*
X82500000Y-104500000D01*
X82500000Y-104500000D02*
X89500000Y-104500000D01*
X89500000Y-104500000D02*
X89500000Y-91500000D01*
%TO.C,SW6*%
X113500000Y-75500000D02*
X106500000Y-75500000D01*
X106500000Y-75500000D02*
X106500000Y-88500000D01*
X106500000Y-88500000D02*
X113500000Y-88500000D01*
X113500000Y-88500000D02*
X113500000Y-75500000D01*
%TO.C,SW5*%
X101500000Y-75500000D02*
X94500000Y-75500000D01*
X94500000Y-75500000D02*
X94500000Y-88500000D01*
X94500000Y-88500000D02*
X101500000Y-88500000D01*
X101500000Y-88500000D02*
X101500000Y-75500000D01*
%TO.C,SW4*%
X89500000Y-75500000D02*
X82500000Y-75500000D01*
X82500000Y-75500000D02*
X82500000Y-88500000D01*
X82500000Y-88500000D02*
X89500000Y-88500000D01*
X89500000Y-88500000D02*
X89500000Y-75500000D01*
%TO.C,SW3*%
X113500000Y-59500000D02*
X106500000Y-59500000D01*
X106500000Y-59500000D02*
X106500000Y-72500000D01*
X106500000Y-72500000D02*
X113500000Y-72500000D01*
X113500000Y-72500000D02*
X113500000Y-59500000D01*
%TO.C,SW2*%
X101500000Y-59500000D02*
X94500000Y-59500000D01*
X94500000Y-59500000D02*
X94500000Y-72500000D01*
X94500000Y-72500000D02*
X101500000Y-72500000D01*
X101500000Y-72500000D02*
X101500000Y-59500000D01*
%TO.C,SW1*%
X89500000Y-59500000D02*
X82500000Y-59500000D01*
X82500000Y-59500000D02*
X82500000Y-72500000D01*
X82500000Y-72500000D02*
X89500000Y-72500000D01*
X89500000Y-72500000D02*
X89500000Y-59500000D01*
D12*
%TO.C,R1*%
X70080000Y-80080000D02*
X70080000Y-83920000D01*
X71920000Y-80080000D02*
X71920000Y-83920000D01*
%TO.C,J1*%
X54025000Y-86595000D02*
X51295000Y-86595000D01*
X60705000Y-77525000D02*
X60705000Y-86475000D01*
X51295000Y-77405000D02*
X51295000Y-86595000D01*
X57625000Y-77405000D02*
X56725000Y-77405000D01*
X54025000Y-77405000D02*
X51295000Y-77405000D01*
X57625000Y-86595000D02*
X56725000Y-86595000D01*
%TO.C,D9*%
X161075000Y-96455000D02*
X161075000Y-96920000D01*
X161075000Y-99080000D02*
X161075000Y-99545000D01*
X166422814Y-96919173D02*
G75*
G03*
X161075001Y-96455170I-2787814J-1080827D01*
G01*
X165889478Y-96919572D02*
G75*
G03*
X161380317Y-96920000I-2254478J-1080428D01*
G01*
X161380316Y-99080000D02*
G75*
G03*
X165889479Y-99080429I2254684J1080000D01*
G01*
X161075000Y-99544830D02*
G75*
G03*
X166422815Y-99080827I2560000J1544831D01*
G01*
%TO.C,D8*%
X148805000Y-96455000D02*
X148805000Y-96920000D01*
X148805000Y-99080000D02*
X148805000Y-99545000D01*
X154152814Y-96919173D02*
G75*
G03*
X148805001Y-96455170I-2787814J-1080827D01*
G01*
X153619478Y-96919572D02*
G75*
G03*
X149110317Y-96920000I-2254478J-1080428D01*
G01*
X149110316Y-99080000D02*
G75*
G03*
X153619479Y-99080429I2254684J1080000D01*
G01*
X148805000Y-99544830D02*
G75*
G03*
X154152815Y-99080827I2560000J1544831D01*
G01*
%TO.C,D7*%
X137535000Y-96455000D02*
X137535000Y-96920000D01*
X137535000Y-99080000D02*
X137535000Y-99545000D01*
X142882814Y-96919173D02*
G75*
G03*
X137535001Y-96455170I-2787814J-1080827D01*
G01*
X142349478Y-96919572D02*
G75*
G03*
X137840317Y-96920000I-2254478J-1080428D01*
G01*
X137840316Y-99080000D02*
G75*
G03*
X142349479Y-99080429I2254684J1080000D01*
G01*
X137535000Y-99544830D02*
G75*
G03*
X142882815Y-99080827I2560000J1544831D01*
G01*
%TO.C,D6*%
X161075000Y-80455000D02*
X161075000Y-80920000D01*
X161075000Y-83080000D02*
X161075000Y-83545000D01*
X166422814Y-80919173D02*
G75*
G03*
X161075001Y-80455170I-2787814J-1080827D01*
G01*
X165889478Y-80919572D02*
G75*
G03*
X161380317Y-80920000I-2254478J-1080428D01*
G01*
X161380316Y-83080000D02*
G75*
G03*
X165889479Y-83080429I2254684J1080000D01*
G01*
X161075000Y-83544830D02*
G75*
G03*
X166422815Y-83080827I2560000J1544831D01*
G01*
%TO.C,D5*%
X148805000Y-80455000D02*
X148805000Y-80920000D01*
X148805000Y-83080000D02*
X148805000Y-83545000D01*
X154152814Y-80919173D02*
G75*
G03*
X148805001Y-80455170I-2787814J-1080827D01*
G01*
X153619478Y-80919572D02*
G75*
G03*
X149110317Y-80920000I-2254478J-1080428D01*
G01*
X149110316Y-83080000D02*
G75*
G03*
X153619479Y-83080429I2254684J1080000D01*
G01*
X148805000Y-83544830D02*
G75*
G03*
X154152815Y-83080827I2560000J1544831D01*
G01*
%TO.C,D4*%
X137535000Y-83544830D02*
G75*
G03*
X142882815Y-83080827I2560000J1544831D01*
G01*
X137840316Y-83080000D02*
G75*
G03*
X142349479Y-83080429I2254684J1080000D01*
G01*
X142349478Y-80919572D02*
G75*
G03*
X137840317Y-80920000I-2254478J-1080428D01*
G01*
X142882814Y-80919173D02*
G75*
G03*
X137535001Y-80455170I-2787814J-1080827D01*
G01*
X137535000Y-83080000D02*
X137535000Y-83545000D01*
X137535000Y-80455000D02*
X137535000Y-80920000D01*
%TO.C,D3*%
X161075000Y-67544830D02*
G75*
G03*
X166422815Y-67080827I2560000J1544831D01*
G01*
X161380316Y-67080000D02*
G75*
G03*
X165889479Y-67080429I2254684J1080000D01*
G01*
X165889478Y-64919572D02*
G75*
G03*
X161380317Y-64920000I-2254478J-1080428D01*
G01*
X166422814Y-64919173D02*
G75*
G03*
X161075001Y-64455170I-2787814J-1080827D01*
G01*
X161075000Y-67080000D02*
X161075000Y-67545000D01*
X161075000Y-64455000D02*
X161075000Y-64920000D01*
%TO.C,D2*%
X148805000Y-64455000D02*
X148805000Y-64920000D01*
X148805000Y-67080000D02*
X148805000Y-67545000D01*
X154152814Y-64919173D02*
G75*
G03*
X148805001Y-64455170I-2787814J-1080827D01*
G01*
X153619478Y-64919572D02*
G75*
G03*
X149110317Y-64920000I-2254478J-1080428D01*
G01*
X149110316Y-67080000D02*
G75*
G03*
X153619479Y-67080429I2254684J1080000D01*
G01*
X148805000Y-67544830D02*
G75*
G03*
X154152815Y-67080827I2560000J1544831D01*
G01*
%TO.C,D1*%
X137535000Y-67544830D02*
G75*
G03*
X142882815Y-67080827I2560000J1544831D01*
G01*
X137840316Y-67080000D02*
G75*
G03*
X142349479Y-67080429I2254684J1080000D01*
G01*
X142349478Y-64919572D02*
G75*
G03*
X137840317Y-64920000I-2254478J-1080428D01*
G01*
X142882814Y-64919173D02*
G75*
G03*
X137535001Y-64455170I-2787814J-1080827D01*
G01*
X137535000Y-67080000D02*
X137535000Y-67545000D01*
X137535000Y-64455000D02*
X137535000Y-64920000D01*
%TD*%
M02*
