%TF.GenerationSoftware,KiCad,Pcbnew,7.0.2*%
%TF.CreationDate,2024-02-04T01:23:05+01:00*%
%TF.ProjectId,TicTacToe,54696354-6163-4546-9f65-2e6b69636164,rev?*%
%TF.SameCoordinates,Original*%
%TF.FileFunction,Copper,L1,Top*%
%TF.FilePolarity,Positive*%
%FSLAX46Y46*%
G04 Gerber Fmt 4.6, Leading zero omitted, Abs format (unit mm)*
G04 Created by KiCad (PCBNEW 7.0.2) date 2024-02-04 01:23:05*
%MOMM*%
%LPD*%
G01*
G04 APERTURE LIST*
%TA.AperFunction,ComponentPad*%
%ADD10C,1.524000*%
%TD*%
%TA.AperFunction,ComponentPad*%
%ADD11C,1.400000*%
%TD*%
%TA.AperFunction,ComponentPad*%
%ADD12O,1.400000X1.400000*%
%TD*%
%TA.AperFunction,ComponentPad*%
%ADD13C,0.700000*%
%TD*%
%TA.AperFunction,ComponentPad*%
%ADD14O,1.700000X0.900000*%
%TD*%
%TA.AperFunction,ComponentPad*%
%ADD15O,2.400000X0.900000*%
%TD*%
%TA.AperFunction,ComponentPad*%
%ADD16O,1.070000X1.800000*%
%TD*%
%TA.AperFunction,ComponentPad*%
%ADD17R,1.070000X1.800000*%
%TD*%
%TA.AperFunction,Conductor*%
%ADD18C,0.250000*%
%TD*%
G04 APERTURE END LIST*
D10*
%TO.P,SW9,1,A*%
%TO.N,Net-(D9-R)*%
X110000000Y-94500000D03*
%TO.P,SW9,2,B*%
%TO.N,USB*%
X110000000Y-98000000D03*
%TO.P,SW9,3,C*%
%TO.N,Net-(D9-B)*%
X110000000Y-102000000D03*
%TD*%
%TO.P,SW8,1,A*%
%TO.N,Net-(D8-R)*%
X98000000Y-94500000D03*
%TO.P,SW8,2,B*%
%TO.N,USB*%
X98000000Y-98000000D03*
%TO.P,SW8,3,C*%
%TO.N,Net-(D8-B)*%
X98000000Y-102000000D03*
%TD*%
%TO.P,SW7,1,A*%
%TO.N,Net-(D7-R)*%
X86000000Y-94500000D03*
%TO.P,SW7,2,B*%
%TO.N,USB*%
X86000000Y-98000000D03*
%TO.P,SW7,3,C*%
%TO.N,Net-(D7-B)*%
X86000000Y-102000000D03*
%TD*%
%TO.P,SW6,1,A*%
%TO.N,Net-(D6-R)*%
X110000000Y-78500000D03*
%TO.P,SW6,2,B*%
%TO.N,USB*%
X110000000Y-82000000D03*
%TO.P,SW6,3,C*%
%TO.N,Net-(D6-B)*%
X110000000Y-86000000D03*
%TD*%
%TO.P,SW5,1,A*%
%TO.N,Net-(D5-R)*%
X98000000Y-78500000D03*
%TO.P,SW5,2,B*%
%TO.N,USB*%
X98000000Y-82000000D03*
%TO.P,SW5,3,C*%
%TO.N,Net-(D5-B)*%
X98000000Y-86000000D03*
%TD*%
%TO.P,SW4,1,A*%
%TO.N,Net-(D4-R)*%
X86000000Y-78500000D03*
%TO.P,SW4,2,B*%
%TO.N,USB*%
X86000000Y-82000000D03*
%TO.P,SW4,3,C*%
%TO.N,Net-(D4-B)*%
X86000000Y-86000000D03*
%TD*%
%TO.P,SW3,1,A*%
%TO.N,Net-(D3-R)*%
X110000000Y-62500000D03*
%TO.P,SW3,2,B*%
%TO.N,USB*%
X110000000Y-66000000D03*
%TO.P,SW3,3,C*%
%TO.N,Net-(D3-B)*%
X110000000Y-70000000D03*
%TD*%
%TO.P,SW2,1,A*%
%TO.N,Net-(D2-R)*%
X98000000Y-62500000D03*
%TO.P,SW2,2,B*%
%TO.N,USB*%
X98000000Y-66000000D03*
%TO.P,SW2,3,C*%
%TO.N,Net-(D2-B)*%
X98000000Y-70000000D03*
%TD*%
%TO.P,SW1,1,A*%
%TO.N,Net-(D1-R)*%
X86000000Y-62500000D03*
%TO.P,SW1,2,B*%
%TO.N,USB*%
X86000000Y-66000000D03*
%TO.P,SW1,3,C*%
%TO.N,Net-(D1-B)*%
X86000000Y-70000000D03*
%TD*%
D11*
%TO.P,R1,1*%
%TO.N,Net-(D1-Pad4)*%
X71000000Y-79460000D03*
D12*
%TO.P,R1,2*%
%TO.N,GNDREF*%
X71000000Y-84540000D03*
%TD*%
D13*
%TO.P,J1,A1*%
%TO.N,N/C*%
X60025000Y-79025000D03*
%TO.P,J1,A4*%
X60025000Y-79875000D03*
%TO.P,J1,A5,CC1*%
%TO.N,unconnected-(J1-CC1-PadA5)*%
X60025000Y-80725000D03*
%TO.P,J1,A6*%
%TO.N,N/C*%
X60025000Y-81575000D03*
%TO.P,J1,A7*%
X60025000Y-82425000D03*
%TO.P,J1,A8*%
X60025000Y-83275000D03*
%TO.P,J1,A9,VBUS*%
%TO.N,USB*%
X60025000Y-84125000D03*
%TO.P,J1,A12,GND*%
%TO.N,GNDREF*%
X60025000Y-84975000D03*
%TO.P,J1,B1*%
%TO.N,N/C*%
X58675000Y-84975000D03*
%TO.P,J1,B4*%
X58675000Y-84125000D03*
%TO.P,J1,B5,CC2*%
%TO.N,unconnected-(J1-CC2-PadB5)*%
X58675000Y-83275000D03*
%TO.P,J1,B6*%
%TO.N,N/C*%
X58675000Y-82425000D03*
%TO.P,J1,B7*%
X58675000Y-81575000D03*
%TO.P,J1,B8*%
X58675000Y-80725000D03*
%TO.P,J1,B9,VBUS*%
%TO.N,USB*%
X58675000Y-79875000D03*
%TO.P,J1,B12,GND*%
%TO.N,GNDREF*%
X58675000Y-79025000D03*
D14*
%TO.P,J1,S1,SHIELD*%
%TO.N,unconnected-(J1-SHIELD-PadS1)*%
X55665000Y-86325000D03*
X55665000Y-77675000D03*
D15*
X59045000Y-86325000D03*
X59045000Y-77675000D03*
%TD*%
D16*
%TO.P,D9,1,R*%
%TO.N,Net-(D9-R)*%
X161730000Y-98000000D03*
%TO.P,D9,2,G*%
%TO.N,unconnected-(D9-G-Pad2)*%
X164270000Y-98000000D03*
%TO.P,D9,3,B*%
%TO.N,Net-(D9-B)*%
X165540000Y-98000000D03*
D17*
%TO.P,D9,4*%
%TO.N,Net-(D1-Pad4)*%
X163000000Y-98000000D03*
%TD*%
D16*
%TO.P,D8,1,R*%
%TO.N,Net-(D8-R)*%
X149460000Y-98000000D03*
%TO.P,D8,2,G*%
%TO.N,unconnected-(D8-G-Pad2)*%
X152000000Y-98000000D03*
%TO.P,D8,3,B*%
%TO.N,Net-(D8-B)*%
X153270000Y-98000000D03*
D17*
%TO.P,D8,4*%
%TO.N,Net-(D1-Pad4)*%
X150730000Y-98000000D03*
%TD*%
D16*
%TO.P,D7,1,R*%
%TO.N,Net-(D7-R)*%
X138190000Y-98000000D03*
%TO.P,D7,2,G*%
%TO.N,unconnected-(D7-G-Pad2)*%
X140730000Y-98000000D03*
%TO.P,D7,3,B*%
%TO.N,Net-(D7-B)*%
X142000000Y-98000000D03*
D17*
%TO.P,D7,4*%
%TO.N,Net-(D1-Pad4)*%
X139460000Y-98000000D03*
%TD*%
D16*
%TO.P,D6,1,R*%
%TO.N,Net-(D6-R)*%
X161730000Y-82000000D03*
%TO.P,D6,2,G*%
%TO.N,unconnected-(D6-G-Pad2)*%
X164270000Y-82000000D03*
%TO.P,D6,3,B*%
%TO.N,Net-(D6-B)*%
X165540000Y-82000000D03*
D17*
%TO.P,D6,4*%
%TO.N,Net-(D1-Pad4)*%
X163000000Y-82000000D03*
%TD*%
D16*
%TO.P,D5,1,R*%
%TO.N,Net-(D5-R)*%
X149460000Y-82000000D03*
%TO.P,D5,2,G*%
%TO.N,unconnected-(D5-G-Pad2)*%
X152000000Y-82000000D03*
%TO.P,D5,3,B*%
%TO.N,Net-(D5-B)*%
X153270000Y-82000000D03*
D17*
%TO.P,D5,4*%
%TO.N,Net-(D1-Pad4)*%
X150730000Y-82000000D03*
%TD*%
%TO.P,D4,4*%
%TO.N,Net-(D1-Pad4)*%
X139460000Y-82000000D03*
D16*
%TO.P,D4,3,B*%
%TO.N,Net-(D4-B)*%
X142000000Y-82000000D03*
%TO.P,D4,2,G*%
%TO.N,unconnected-(D4-G-Pad2)*%
X140730000Y-82000000D03*
%TO.P,D4,1,R*%
%TO.N,Net-(D4-R)*%
X138190000Y-82000000D03*
%TD*%
D17*
%TO.P,D3,4*%
%TO.N,Net-(D1-Pad4)*%
X163000000Y-66000000D03*
D16*
%TO.P,D3,3,B*%
%TO.N,Net-(D3-B)*%
X165540000Y-66000000D03*
%TO.P,D3,2,G*%
%TO.N,unconnected-(D3-G-Pad2)*%
X164270000Y-66000000D03*
%TO.P,D3,1,R*%
%TO.N,Net-(D3-R)*%
X161730000Y-66000000D03*
%TD*%
%TO.P,D2,1,R*%
%TO.N,Net-(D2-R)*%
X149460000Y-66000000D03*
%TO.P,D2,2,G*%
%TO.N,unconnected-(D2-G-Pad2)*%
X152000000Y-66000000D03*
%TO.P,D2,3,B*%
%TO.N,Net-(D2-B)*%
X153270000Y-66000000D03*
D17*
%TO.P,D2,4*%
%TO.N,Net-(D1-Pad4)*%
X150730000Y-66000000D03*
%TD*%
%TO.P,D1,4*%
%TO.N,Net-(D1-Pad4)*%
X139460000Y-66000000D03*
D16*
%TO.P,D1,3,B*%
%TO.N,Net-(D1-B)*%
X142000000Y-66000000D03*
%TO.P,D1,2,G*%
%TO.N,unconnected-(D1-G-Pad2)*%
X140730000Y-66000000D03*
%TO.P,D1,1,R*%
%TO.N,Net-(D1-R)*%
X138190000Y-66000000D03*
%TD*%
D18*
%TO.N,Net-(D4-B)*%
X140365000Y-80000000D02*
X142000000Y-81635000D01*
X94000000Y-80000000D02*
X140365000Y-80000000D01*
X88000000Y-86000000D02*
X94000000Y-80000000D01*
X142000000Y-81635000D02*
X142000000Y-82000000D01*
X86000000Y-86000000D02*
X88000000Y-86000000D01*
%TO.N,Net-(D6-R)*%
X155730000Y-76000000D02*
X161730000Y-82000000D01*
X110000000Y-78500000D02*
X112500000Y-76000000D01*
X112500000Y-76000000D02*
X155730000Y-76000000D01*
%TO.N,Net-(D7-B)*%
X142000000Y-97635000D02*
X142000000Y-98000000D01*
X95000000Y-96000000D02*
X140365000Y-96000000D01*
X140365000Y-96000000D02*
X142000000Y-97635000D01*
X89000000Y-102000000D02*
X95000000Y-96000000D01*
X86000000Y-102000000D02*
X89000000Y-102000000D01*
%TO.N,Net-(D9-R)*%
X156730000Y-93000000D02*
X161730000Y-98000000D01*
X110000000Y-94500000D02*
X111500000Y-93000000D01*
X111500000Y-93000000D02*
X156730000Y-93000000D01*
%TO.N,Net-(D8-B)*%
X103000000Y-100000000D02*
X152817500Y-100000000D01*
X152817500Y-100000000D02*
X153270000Y-99547500D01*
X101000000Y-102000000D02*
X103000000Y-100000000D01*
X153270000Y-99547500D02*
X153270000Y-98000000D01*
X98000000Y-102000000D02*
X101000000Y-102000000D01*
%TO.N,Net-(D9-B)*%
X165540000Y-98365000D02*
X165540000Y-98000000D01*
X159905000Y-104000000D02*
X165540000Y-98365000D01*
X112000000Y-104000000D02*
X159905000Y-104000000D01*
X110000000Y-102000000D02*
X112000000Y-104000000D01*
%TO.N,GNDREF*%
X70565000Y-84975000D02*
X60025000Y-84975000D01*
X71000000Y-84540000D02*
X70565000Y-84975000D01*
%TO.N,Net-(D6-B)*%
X165540000Y-84460000D02*
X165540000Y-82000000D01*
X159000000Y-91000000D02*
X165540000Y-84460000D01*
X115000000Y-91000000D02*
X159000000Y-91000000D01*
X110000000Y-86000000D02*
X115000000Y-91000000D01*
%TO.N,Net-(D5-B)*%
X150000000Y-89000000D02*
X153270000Y-85730000D01*
X104000000Y-84000000D02*
X127000000Y-84000000D01*
X102000000Y-86000000D02*
X104000000Y-84000000D01*
X127000000Y-84000000D02*
X132000000Y-89000000D01*
X153270000Y-85730000D02*
X153270000Y-82000000D01*
X98000000Y-86000000D02*
X102000000Y-86000000D01*
X132000000Y-89000000D02*
X150000000Y-89000000D01*
%TO.N,Net-(D3-R)*%
X158230000Y-62500000D02*
X161730000Y-66000000D01*
X110000000Y-62500000D02*
X158230000Y-62500000D01*
%TO.N,Net-(D1-B)*%
X142000000Y-69000000D02*
X142000000Y-66000000D01*
X105000000Y-64000000D02*
X127000000Y-64000000D01*
X127000000Y-64000000D02*
X133000000Y-70000000D01*
X133000000Y-70000000D02*
X141000000Y-70000000D01*
X101000000Y-68000000D02*
X105000000Y-64000000D01*
X141000000Y-70000000D02*
X142000000Y-69000000D01*
X90000000Y-70000000D02*
X92000000Y-68000000D01*
X86000000Y-70000000D02*
X90000000Y-70000000D01*
X92000000Y-68000000D02*
X101000000Y-68000000D01*
%TO.N,Net-(D2-B)*%
X153270000Y-68730000D02*
X153270000Y-66000000D01*
X124000000Y-68000000D02*
X128000000Y-72000000D01*
X104000000Y-68000000D02*
X124000000Y-68000000D01*
X128000000Y-72000000D02*
X150000000Y-72000000D01*
X102000000Y-70000000D02*
X104000000Y-68000000D01*
X150000000Y-72000000D02*
X153270000Y-68730000D01*
X98000000Y-70000000D02*
X102000000Y-70000000D01*
%TO.N,Net-(D3-B)*%
X165540000Y-70460000D02*
X165540000Y-66000000D01*
X162000000Y-74000000D02*
X165540000Y-70460000D01*
X110000000Y-70000000D02*
X114000000Y-74000000D01*
X114000000Y-74000000D02*
X162000000Y-74000000D01*
%TD*%
M02*
